<?xml version="1.0" encoding="UTF-8" standalone="no"?>
<!-- Created with Inkscape (http://www.inkscape.org/) -->
<svg
   xmlns:svg="http://www.w3.org/2000/svg"
   xmlns="http://www.w3.org/2000/svg"
   xmlns:xlink="http://www.w3.org/1999/xlink"
   version="1.0"
   width="484.26465"
   height="545.42157"
   id="svg35383">
  <defs
     id="defs3">
    <linearGradient
       id="linearGradient36282">
      <stop
         id="stop36284"
         style="stop-color:#ffffff;stop-opacity:1"
         offset="0" />
      <stop
         id="stop36286"
         style="stop-color:#ffffff;stop-opacity:0"
         offset="1" />
    </linearGradient>
    <linearGradient
       id="linearGradient35660">
      <stop
         id="stop35662"
         style="stop-color:#6c6c6c;stop-opacity:0"
         offset="0" />
      <stop
         id="stop35664"
         style="stop-color:#6c6c6c;stop-opacity:1"
         offset="1" />
    </linearGradient>
    <linearGradient
       x1="230.36443"
       y1="-105.82896"
       x2="-32.703732"
       y2="168.00558"
       id="linearGradient28261"
       xlink:href="#linearGradient2372"
       gradientUnits="userSpaceOnUse"
       gradientTransform="matrix(0.672681,0.340715,0.340715,0.645341,-29.512719,30.720579)" />
    <linearGradient
       x1="29.004633"
       y1="165.35434"
       x2="95.392883"
       y2="122.68542"
       id="linearGradient28112"
       xlink:href="#linearGradient1994"
       gradientUnits="userSpaceOnUse"
       gradientTransform="matrix(0.646864,0,0,0.654674,31.85279,-16.26299)" />
    <linearGradient
       x1="118.7339"
       y1="107.62621"
       x2="32.249542"
       y2="158.28439"
       id="linearGradient28110"
       xlink:href="#linearGradient1994"
       gradientUnits="userSpaceOnUse"
       gradientTransform="matrix(0.646864,0,0,0.654674,31.85279,-16.26299)" />
    <linearGradient
       x1="90.055061"
       y1="99.809326"
       x2="91.005592"
       y2="106.85813"
       id="linearGradient28108"
       xlink:href="#linearGradient1296"
       gradientUnits="userSpaceOnUse"
       gradientTransform="matrix(1.007605,0,0,0.992453,-0.116902,-5.829569)" />
    <linearGradient
       x1="59.357319"
       y1="101.33393"
       x2="60.314144"
       y2="108.70181"
       id="linearGradient28106"
       xlink:href="#linearGradient1296"
       gradientUnits="userSpaceOnUse"
       gradientTransform="matrix(1.007605,0,0,0.992453,-0.116902,-5.829569)" />
    <linearGradient
       x1="65.802528"
       y1="114.98878"
       x2="65.996544"
       y2="128.36607"
       id="linearGradient28104"
       xlink:href="#linearGradient1296"
       gradientUnits="userSpaceOnUse"
       gradientTransform="matrix(1.170264,0,0,0.854508,-0.116902,-5.829569)" />
    <linearGradient
       x1="75.470001"
       y1="50.221542"
       x2="56.534149"
       y2="66.969215"
       id="linearGradient28102"
       xlink:href="#linearGradient1296"
       gradientUnits="userSpaceOnUse"
       gradientTransform="scale(1.536711,0.650741)" />
    <linearGradient
       x1="38.728287"
       y1="75.792404"
       x2="61.690407"
       y2="62.625633"
       id="linearGradient28100"
       xlink:href="#linearGradient1296"
       gradientUnits="userSpaceOnUse"
       gradientTransform="matrix(0.299835,0,0,1.770891,28.55395,-27.58212)" />
    <linearGradient
       x1="341.39548"
       y1="46.738003"
       x2="317.67352"
       y2="46.616974"
       id="linearGradient28098"
       xlink:href="#linearGradient1296"
       gradientUnits="userSpaceOnUse"
       gradientTransform="matrix(0.239931,0,0,2.213032,23.60349,-26.4223)" />
    <linearGradient
       x1="71.89949"
       y1="120.23053"
       x2="53.853329"
       y2="139.15834"
       id="linearGradient28096"
       xlink:href="#linearGradient1296"
       gradientUnits="userSpaceOnUse"
       gradientTransform="matrix(1.119772,0,0,0.474183,27.44513,-25.41122)" />
    <linearGradient
       id="linearGradient1296">
      <stop
         id="stop1297"
         style="stop-color:#ffffff;stop-opacity:1"
         offset="0" />
      <stop
         id="stop1298"
         style="stop-color:#ffffff;stop-opacity:0"
         offset="1" />
    </linearGradient>
    <linearGradient
       x1="55.665905"
       y1="178.43867"
       x2="54.376595"
       y2="166.99133"
       id="linearGradient28094"
       xlink:href="#linearGradient1296"
       gradientUnits="userSpaceOnUse"
       gradientTransform="matrix(1.203682,0,0,0.830784,2.245185e-2,1.119612)" />
    <linearGradient
       x1="49.018005"
       y1="74.757034"
       x2="49.188519"
       y2="88.849571"
       id="linearGradient28092"
       xlink:href="#linearGradient1212"
       gradientUnits="userSpaceOnUse" />
    <linearGradient
       x1="49.018005"
       y1="74.757034"
       x2="49.206905"
       y2="89.766396"
       id="linearGradient28090"
       xlink:href="#linearGradient1212"
       gradientUnits="userSpaceOnUse" />
    <linearGradient
       x1="49.018005"
       y1="74.757034"
       x2="49.18486"
       y2="88.667091"
       id="linearGradient28088"
       xlink:href="#linearGradient1212"
       gradientUnits="userSpaceOnUse" />
    <linearGradient
       id="linearGradient1212">
      <stop
         id="stop1213"
         style="stop-color:#000000;stop-opacity:1"
         offset="0" />
      <stop
         id="stop13107"
         style="stop-color:#d1a600;stop-opacity:1"
         offset="0.74285716" />
      <stop
         id="stop1214"
         style="stop-color:#ffffff;stop-opacity:1"
         offset="1" />
    </linearGradient>
    <linearGradient
       x1="60.390041"
       y1="62.005383"
       x2="60.390041"
       y2="278.62378"
       id="linearGradient28086"
       xlink:href="#linearGradient1212"
       gradientUnits="userSpaceOnUse"
       gradientTransform="scale(0.994017,1.006019)" />
    <linearGradient
       id="linearGradient1994">
      <stop
         id="stop1995"
         style="stop-color:#eae8e3;stop-opacity:1"
         offset="0" />
      <stop
         id="stop1996"
         style="stop-color:#eae8e3;stop-opacity:0"
         offset="1" />
    </linearGradient>
    <linearGradient
       x1="108.16358"
       y1="127.52305"
       x2="63.160023"
       y2="154.37885"
       id="linearGradient28084"
       xlink:href="#linearGradient1994"
       gradientUnits="userSpaceOnUse"
       gradientTransform="matrix(1.000046,2.276254e-3,2.276254e-3,1.113511,-0.929175,-18.1914)" />
    <linearGradient
       x1="135.62878"
       y1="160.44838"
       x2="73.294273"
       y2="167.83545"
       id="linearGradient28082"
       xlink:href="#linearGradient2492"
       gradientUnits="userSpaceOnUse"
       gradientTransform="matrix(0.662924,4.719848e-5,4.719848e-5,0.665277,31.26562,-17.36258)" />
    <linearGradient
       x1="10.915019"
       y1="169.85017"
       x2="34.880188"
       y2="162.40181"
       id="linearGradient28080"
       xlink:href="#linearGradient2492"
       gradientUnits="userSpaceOnUse"
       gradientTransform="matrix(0.701675,4.995743e-5,4.995743e-5,0.704165,28.74061,-23.03857)" />
    <linearGradient
       x1="-53.535465"
       y1="277.43588"
       x2="-48.871265"
       y2="-9.3667469"
       id="linearGradient28078"
       xlink:href="#linearGradient1442"
       gradientUnits="userSpaceOnUse"
       gradientTransform="scale(0.743434,1.345109)" />
    <linearGradient
       x1="-53.535465"
       y1="277.43588"
       x2="-48.871265"
       y2="-9.3667469"
       id="linearGradient28076"
       xlink:href="#linearGradient1442"
       gradientUnits="userSpaceOnUse"
       gradientTransform="scale(0.743434,1.345109)" />
    <linearGradient
       x1="-53.535465"
       y1="277.43588"
       x2="-48.871265"
       y2="-9.3667469"
       id="linearGradient28074"
       xlink:href="#linearGradient1442"
       gradientUnits="userSpaceOnUse"
       gradientTransform="scale(0.743434,1.345109)" />
    <linearGradient
       x1="-53.535465"
       y1="277.43588"
       x2="-48.871265"
       y2="-9.3667469"
       id="linearGradient28072"
       xlink:href="#linearGradient1442"
       gradientUnits="userSpaceOnUse"
       gradientTransform="scale(0.743434,1.345109)" />
    <linearGradient
       id="linearGradient1442">
      <stop
         id="stop1443"
         style="stop-color:#000000;stop-opacity:0.3125"
         offset="0" />
      <stop
         id="stop1444"
         style="stop-color:#000000;stop-opacity:0"
         offset="1" />
    </linearGradient>
    <linearGradient
       x1="-53.535465"
       y1="277.43588"
       x2="-48.871265"
       y2="-9.3667469"
       id="linearGradient28070"
       xlink:href="#linearGradient1442"
       gradientUnits="userSpaceOnUse"
       gradientTransform="scale(0.743434,1.345109)" />
    <linearGradient
       id="linearGradient2372">
      <stop
         id="stop2373"
         style="stop-color:#000000;stop-opacity:0.47058824"
         offset="0" />
      <stop
         id="stop2374"
         style="stop-color:#000000;stop-opacity:0"
         offset="1" />
    </linearGradient>
    <linearGradient
       id="linearGradient2492">
      <stop
         id="stop2494"
         style="stop-color:#dcd7d2;stop-opacity:1"
         offset="0" />
      <stop
         id="stop2496"
         style="stop-color:#dcd7d2;stop-opacity:0"
         offset="1" />
    </linearGradient>
    <linearGradient
       x1="302"
       y1="1227.6633"
       x2="302"
       y2="429.49988"
       id="linearGradient36288"
       xlink:href="#linearGradient36282"
       gradientUnits="userSpaceOnUse"
       gradientTransform="matrix(0.824587,0,0,0.194103,-3.157444,126.0741)" />
    <radialGradient
       cx="267.58633"
       cy="332.67535"
       r="311"
       fx="267.58633"
       fy="98.93"
       id="radialGradient13559"
       xlink:href="#linearGradient35660"
       gradientUnits="userSpaceOnUse"
       gradientTransform="matrix(1.512814,0,0,0.4343151,-191.7841,9.2207817)" />
  </defs>
  <g
     transform="translate(17.73851,94)"
     id="layer1">
    <rect
       width="484.26465"
       height="545.42157"
       x="-17.73851"
       y="-94"
       id="rect2262"
       style="opacity:1;fill:#eeeeec;fill-opacity:1;stroke:none;stroke-width:2.3125;stroke-linecap:butt;stroke-linejoin:miter;stroke-miterlimit:4;stroke-dasharray:6.9375, 6.9375;stroke-dashoffset:0;stroke-opacity:1" />
    <rect
       width="484.26465"
       height="545.42157"
       x="-17.73851"
       y="-94"
       id="rect35658"
       style="opacity:1;fill:url(#radialGradient13559);fill-opacity:1;stroke:none;stroke-width:2.3125;stroke-linecap:butt;stroke-linejoin:miter;stroke-miterlimit:4;stroke-dasharray:6.9375, 6.9375;stroke-dashoffset:0;stroke-opacity:1" />
    <g
       transform="matrix(0.739943,0,0,0.739943,-994.937,-151.7488)"
       id="g28000">
      <g
         transform="matrix(1.632171,-1.567998,1.567998,1.632171,1391.181,345.3835)"
         id="g28002"
         style="opacity:1">
        <path
           d="M -3.6237045,130.69951 C -11.385481,123.02287 -16.763027,114.56028 -20.187722,107.14559 C -25.138604,95.864654 -20.614412,92.545769 -8.085636,99.058261 L -20.452818,87.177334 C -23.018852,84.712192 -25.054161,81.557382 -25.016115,80.105476 L -24.782911,71.320864 C -24.744871,69.86895 -22.651788,70.680216 -20.085759,73.145354 L 30.714423,121.94816 C 38.348496,126.75539 45.38217,131.38965 50.1539,134.92376 C 63.321255,144.67597 67.51991,151.74951 69.956649,156.79768 C 70.712874,158.36436 71.471166,160.02902 71.921285,161.53485 L 77.537304,166.93006 C 80.103341,169.39521 82.138641,172.55 82.1006,174.00192 L 81.86739,182.78653 C 81.829357,184.23844 79.736281,183.42719 77.170244,180.96204 L 59.306538,163.8007 C 47.325866,159.77327 27.219428,151.28709 13.017867,143.2733 C 6.5523811,139.6305 1.0333644,135.3055 -3.6237045,130.69951 z"
           id="path28250"
           style="fill:url(#linearGradient28261);fill-opacity:1;fill-rule:evenodd;stroke:#000000;stroke-width:0.21357996pt;stroke-opacity:0.0413223" />
        <g
           transform="matrix(0.728681,0,0,0.680147,102.5877,44.97297)"
           id="g28004"
           style="fill:url(#linearGradient28070)">
          <path
             d="M -57.257363,-23.679543 C -30.985268,-26.918569 -3.8734334,-20.200589 0.32530661,13.389305 C 4.5240466,46.619308 -0.87432339,103.36224 -7.2324134,127.11509 C -13.5905,150.86794 -27.506314,152.66741 -38.542994,153.74708 C -49.579673,154.82676 -63.975342,154.10697 -73.812383,132.15357 C -83.649423,110.20018 -93.966323,53.097358 -96.485563,26.345408 C -99.364693,-0.40653861 -83.529453,-19.720734 -57.257363,-23.679543 z"
             id="path28006"
             style="fill:url(#linearGradient28072);fill-opacity:0.14876033;fill-rule:evenodd;stroke:none;stroke-width:1pt;stroke-opacity:1" />
          <path
             d="M -56.84375,-22 C -69.358918,-19.559475 -82.126228,-13.693529 -88.779901,-2.2575693 C -96.67733,9.8505674 -95.276599,25.106874 -93.092984,38.721683 C -89.406984,66.023373 -83.988306,93.142885 -76.429615,119.63611 C -73.161417,129.71742 -68.900772,140.26825 -60.521721,147.16441 C -52.554809,152.95541 -42.223201,152.85619 -32.932592,151.10772 C -24.297797,149.79201 -15.692828,144.65583 -12.797699,135.99478 C -6.9122162,124.1927 -5.9046551,110.81204 -3.8013236,97.982868 C -0.42265144,69.330099 1.5422251,40.232785 -1.8720113,11.500148 C -3.3725108,0.023496219 -9.5748596,-11.400412 -20.138828,-16.738456 C -31.43981,-22.459922 -44.430327,-23.155252 -56.84375,-22 z"
             id="path28008"
             style="fill:url(#linearGradient28074);fill-opacity:0.14876033;fill-rule:evenodd;stroke:none;stroke-width:1pt;stroke-opacity:1" />
          <path
             d="M -56.28125,-19.78125 C -68.195973,-16.431852 -81.416295,-11.630688 -87.412436,0.10944881 C -94.976687,13.202579 -91.976506,28.828729 -90.156563,43.005695 C -85.865929,70.817865 -80.4311,98.522772 -71.764296,125.33427 C -68.234585,134.05214 -63.451462,143.70553 -54.315249,147.57261 C -43.991116,150.79596 -32.326912,149.76262 -22.8125,144.625 C -13.258266,137.57015 -11.755933,124.91235 -8.875,114.21875 C -5.5785178,94.857325 -3.6615364,75.236271 -2.9345474,55.611286 C -2.3636468,39.320412 -3.023218,22.916349 -5.389532,6.7938319 C -8.3088772,-5.8636194 -19.02732,-16.252285 -31.960687,-18.184399 C -39.891187,-20.511353 -48.135149,-19.833505 -56.28125,-19.78125 z"
             id="path28010"
             style="fill:url(#linearGradient28076);fill-opacity:0.14876033;fill-rule:evenodd;stroke:none;stroke-width:1pt;stroke-opacity:1" />
          <path
             d="M -55.71875,-17.53125 C -66.316868,-13.79457 -78.603157,-10.147964 -84.622144,0.19650149 C -92.453133,12.94554 -89.568073,28.501771 -87.869091,42.504615 C -83.248196,71.272073 -77.458147,99.959498 -68.051832,127.58413 C -64.402686,135.86012 -58.551807,145.57918 -48.5,146.21875 C -39.427613,147.6439 -29.611804,146.02571 -22.097416,140.65365 C -14.558483,132.19047 -12.881098,120.4488 -10.543423,109.75772 C -7.103618,88.192591 -6.0951793,66.339884 -5.2706994,44.554551 C -5.8397454,30.14411 -5.2534142,15.272273 -9.9136067,1.4637816 C -15.309302,-11.113203 -29.514641,-17.341794 -42.615868,-17.295477 C -46.978286,-17.737373 -51.343115,-17.539903 -55.71875,-17.53125 z"
             id="path28012"
             style="fill:url(#linearGradient28078);fill-opacity:0.14876033;fill-rule:evenodd;stroke:none;stroke-width:1pt;stroke-opacity:1" />
        </g>
        <path
           d="M 52.1843,61.580269 C 78.456395,58.341243 105.56823,65.059223 109.76697,98.649117 C 113.96571,131.87912 108.56734,188.62205 102.20925,212.3749 C 95.851163,236.12775 81.935349,237.92722 70.898669,239.00689 C 59.86199,240.08657 45.466321,239.36678 35.62928,217.41338 C 25.79224,195.45999 15.475344,138.35717 12.956102,111.60522 C 10.076969,84.853273 25.912205,65.539078 52.1843,61.580269 z"
           transform="matrix(0.728681,0,0,0.728681,27.06076,-26.49163)"
           id="path28014"
           style="fill:#003366;fill-opacity:1;fill-rule:evenodd;stroke:#000000;stroke-width:1pt;stroke-opacity:0.0413223" />
        <path
           d="M 65.360107,20.326717 C 83.794417,18.04722 102.81844,22.779141 105.76628,46.432186 C 108.71409,69.831807 104.92902,109.78793 100.4689,126.51355 C 96.008771,143.23916 86.244483,144.50559 78.500375,145.2653 C 70.756268,146.02503 60.655151,145.51746 53.751649,130.05814 C 46.848148,114.59884 39.606187,74.388505 37.837162,55.550586 C 35.81561,36.712653 46.925834,23.11306 65.360107,20.326717 z"
           id="path28016"
           style="fill:url(#linearGradient28080);fill-opacity:1;fill-rule:evenodd;stroke:#000000;stroke-width:0.70291896pt;stroke-opacity:0.0413223" />
        <path
           d="M 65.862794,23.607827 C 83.279059,21.454216 101.25247,25.924814 104.03751,48.271606 C 106.82253,70.378969 103.24649,108.12849 99.032684,123.93043 C 94.818868,139.73236 85.593818,140.92885 78.277383,141.6466 C 70.960949,142.36438 61.417672,141.88484 54.89542,127.27927 C 48.373168,112.67372 41.531149,74.684021 39.859819,56.886437 C 37.949909,39.08884 48.446564,26.240292 65.862794,23.607827 z"
           id="path28018"
           style="fill:url(#linearGradient28082);fill-opacity:1;fill-rule:evenodd;stroke:#000000;stroke-width:0.66409984pt;stroke-opacity:0.0413223" />
        <path
           d="M 96.782936,114.19018 C 96.098008,114.07982 95.292666,114.25067 94.72084,114.42907 L 89.598878,116.01808 C 88.403837,116.3909 87.061587,117.60755 87.261565,119.21408 C 87.461244,120.6746 89.047409,120.59268 90.014109,120.40345 L 95.91821,119.23379 C 97.218733,118.9792 98.461148,117.41095 98.129593,115.58513 C 98.029381,114.67236 97.467864,114.30054 96.782936,114.19018 z M 56.003452,115.87201 C 55.31897,115.97926 54.758967,116.34852 54.662486,117.26084 C 54.338393,119.08517 55.618482,120.65917 56.920058,120.91967 L 62.797745,122.11615 C 63.765227,122.30978 65.382994,122.399 65.576703,120.93937 C 65.770112,119.33374 64.391627,118.11089 63.19505,117.73263 L 58.066544,116.12029 C 57.493986,115.93929 56.687934,115.76477 56.003452,115.87201 z M 76.320507,117.69291 C 74.927217,117.66845 73.525878,117.71111 72.69584,117.92824 C 71.035766,118.36248 69.983174,119.3565 70.137846,120.18422 C 70.029965,120.86534 70.474004,121.83456 72.047953,122.03281 C 73.6219,122.23107 78.853263,122.14882 80.578953,121.73906 C 82.30464,121.3293 82.464799,120.91385 82.418305,119.55103 C 82.240681,118.18791 81.532724,118.21603 79.914919,117.94467 C 79.106016,117.80898 77.713797,117.71737 76.320507,117.69291 z M 96.202745,120.8351 C 95.517819,120.72474 94.712474,120.89559 94.140649,121.07398 L 89.049939,122.66306 C 87.854898,123.03588 86.481471,124.28725 86.681446,125.8938 C 86.881124,127.35431 88.467223,127.2376 89.433918,127.04836 L 95.338091,125.9135 C 96.638614,125.65892 97.881024,124.09068 97.549473,122.26484 C 97.449261,121.35207 96.887672,120.94546 96.202745,120.8351 z M 56.797897,122.31127 C 56.113416,122.41852 55.553412,122.78778 55.456931,123.7001 C 55.132838,125.52445 56.381676,127.09836 57.683252,127.35886 L 63.59219,128.55541 C 64.559672,128.74905 66.146187,128.83819 66.339897,127.37856 C 66.533309,125.77293 65.186072,124.55015 63.989496,124.17189 L 58.86099,122.55955 C 58.28843,122.37855 57.482379,122.20403 56.797897,122.31127 z M 76.581971,123.29583 C 75.18868,123.27136 73.78741,123.34884 72.957375,123.56595 C 71.297301,124.00019 70.244702,124.99421 70.399381,125.82194 C 70.2915,126.50306 70.735468,127.43747 72.309417,127.63573 C 73.883364,127.83399 79.083548,127.78646 80.809236,127.3767 C 82.534923,126.96694 82.695084,126.5515 82.648589,125.18867 C 82.470964,123.82555 81.76301,123.85367 80.145203,123.58231 C 79.336299,123.44663 77.975262,123.32029 76.581971,123.29583 z M 95.278504,127.34004 C 94.647098,127.23894 93.93099,127.38115 93.403845,127.54456 L 88.687939,129.0301 C 87.586273,129.37161 86.321983,130.47643 86.506314,131.94808 C 86.690373,133.286 88.148718,133.20588 89.039885,133.03256 L 94.475428,131.96622 C 95.674332,131.73303 96.836822,130.30294 96.531193,128.63038 C 96.438822,127.79424 95.909911,127.44115 95.278504,127.34004 z M 58.967761,128.92765 C 58.342122,129.03046 57.808585,129.40786 57.720478,130.2819 C 57.424407,132.02968 58.60046,133.51687 59.790186,133.76631 L 65.167707,134.89206 C 66.052046,135.07747 67.519869,135.18269 67.696797,133.78431 C 67.873438,132.24606 66.62795,131.07951 65.534188,130.71725 L 60.843345,129.1755 C 60.319982,129.00215 59.593401,128.82484 58.967761,128.92765 z M 76.969863,129.59497 C 75.576573,129.57051 74.175234,129.61319 73.345196,129.8303 C 71.685122,130.26454 70.632529,131.25857 70.787202,132.08629 C 70.679321,132.76741 71.123359,133.73662 72.697309,133.93488 C 74.271256,134.13314 79.50269,134.08567 81.22838,133.67592 C 82.954067,133.26616 83.114225,132.85073 83.067732,131.48789 C 82.890108,130.12477 82.18208,130.1181 80.564275,129.84673 C 79.755372,129.71105 78.363153,129.61944 76.969863,129.59497 z M 94.603137,133.2888 C 94.009188,133.19082 93.31809,133.33508 92.822232,133.49353 L 88.387446,134.91011 C 87.351164,135.24127 86.157204,136.3321 86.330685,137.75879 C 86.503901,139.05582 87.900904,138.97628 88.739179,138.80818 L 93.831027,137.77586 C 94.958784,137.54971 96.04959,136.16557 95.762,134.54413 C 95.675061,133.73355 95.197085,133.38678 94.603137,133.2888 z M 60.230409,135.0896 C 59.583346,135.18171 59.042882,135.48514 58.951519,136.26979 C 58.644836,137.8388 59.821498,139.21679 61.051837,139.4411 L 66.647906,140.46295 C 67.562434,140.62969 69.056343,140.7151 69.239711,139.45974 C 69.422821,138.07881 68.146231,136.99648 67.015169,136.67091 L 62.168424,135.3028 C 61.627213,135.14701 60.877471,134.9975 60.230409,135.0896 z M 77.26393,135.85911 C 75.87064,135.83465 74.469372,135.91211 73.639334,136.12924 C 71.97926,136.56348 70.926668,137.55749 71.08134,138.38522 C 70.973459,139.06634 71.417426,140.00075 72.991376,140.19902 C 74.565323,140.39727 79.765506,140.34975 81.491195,139.93999 C 83.216882,139.53023 83.377042,139.11478 83.330548,137.75196 C 83.152923,136.38884 82.444967,136.41696 80.827162,136.1456 C 80.018258,136.00991 78.65722,135.88357 77.26393,135.85911 z"
           id="path28020"
           style="fill:url(#linearGradient28084);fill-opacity:1;fill-rule:evenodd;stroke:none;stroke-width:0.90168543pt" />
        <path
           d="M 68.152862,28.233985 C 89.008557,26.821175 103.9751,35.703024 104.85867,50.103707 C 105.99263,64.504234 104.67849,86.840368 102.70333,97.781217 C 100.97855,108.72191 85.106429,115.11346 75.782367,115.29081 C 66.458304,115.46816 49.26796,110.54169 46.758958,98.845324 C 43.749219,87.149265 40.19925,64.631777 39.000001,51.517024 C 37.800909,38.159736 47.547537,29.646637 68.152862,28.233985 z"
           id="path28022"
           style="fill:#d1a600;fill-opacity:1;fill-rule:evenodd;stroke-width:1pt" />
        <path
           d="M 24.43026,108.74338 C 25.278533,98.648931 27.144733,97.206868 36.64539,95.001358 C 46.146047,92.795848 71.42458,93.474467 81.434201,95.510322 C 91.443822,97.546177 94.073468,98.224797 96.703114,107.21649 C 99.33276,116.20818 99.163105,139.62051 97.212077,149.46048 C 95.261049,159.30045 93.140367,163.2025 84.996947,166.25628 C 76.853527,169.31006 57.258423,169.56455 48.351557,167.78318 C 39.444691,166.00181 35.542636,165.40802 31.555753,155.56805 C 27.56887,145.72808 23.581987,118.83783 24.43026,108.74338 z"
           transform="matrix(0.728681,0,0,0.728681,27.06076,-26.49163)"
           id="path28024"
           style="fill:url(#linearGradient28086);fill-opacity:0.75;fill-rule:evenodd;stroke-width:1pt" />
        <path
           d="M 74.971811,98.469273 C 81.307545,98.129307 85.38714,101.71442 85.170797,104.95955 C 85.139891,108.01924 81.492981,112.22245 75.898992,112.37699 C 70.305002,112.71695 66.039971,109.13186 66.070877,105.88673 C 66.101784,102.45616 68.821513,98.809235 74.971811,98.469273 z"
           id="path28026"
           style="fill:#3a3731;fill-opacity:1;fill-rule:evenodd;stroke:none;stroke-width:1pt" />
        <path
           d="M 51.824409,85.693016 C 51.824409,87.183736 50.615941,88.392204 49.125221,88.392204 C 47.634501,88.392204 46.426033,87.183736 46.426033,85.693016 C 46.426033,84.202296 47.634501,82.993828 49.125221,82.993828 C 50.615941,82.993828 51.824409,84.202296 51.824409,85.693016 L 51.824409,85.693016 z"
           transform="matrix(0.728681,0,0,0.728681,27.06076,-26.49163)"
           id="path28028"
           style="fill-opacity:0.75;fill-rule:evenodd;stroke:url(#linearGradient28088);stroke-width:2.75" />
        <path
           d="M 51.824409,85.693016 C 51.824409,87.183736 50.615941,88.392204 49.125221,88.392204 C 47.634501,88.392204 46.426033,87.183736 46.426033,85.693016 C 46.426033,84.202296 47.634501,82.993828 49.125221,82.993828 C 50.615941,82.993828 51.824409,84.202296 51.824409,85.693016 L 51.824409,85.693016 z"
           transform="matrix(0.728681,0,0,0.728681,35.32152,-26.62276)"
           id="path28030"
           style="fill-opacity:0.75;fill-rule:evenodd;stroke:url(#linearGradient28090);stroke-width:2.75" />
        <path
           d="M 51.824409,85.693016 C 51.824409,87.183736 50.615941,88.392204 49.125221,88.392204 C 47.634501,88.392204 46.426033,87.183736 46.426033,85.693016 C 46.426033,84.202296 47.634501,82.993828 49.125221,82.993828 C 50.615941,82.993828 51.824409,84.202296 51.824409,85.693016 L 51.824409,85.693016 z"
           transform="matrix(0.728681,0,0,0.728681,43.45113,-26.09826)"
           id="path28032"
           style="fill-opacity:0.75;fill-rule:evenodd;stroke:url(#linearGradient28092);stroke-width:2.75" />
        <path
           d="M 68.031329,144.95839 C 55.420209,141.25177 51.124535,120.29513 51.124535,120.29513 C 51.124535,120.29513 56.867384,134.51247 68.238068,137.88213 C 79.608749,140.9148 87.878336,136.53426 87.878336,136.53426 C 87.878336,136.53426 80.435708,148.665 68.031329,144.95839 z"
           id="path28034"
           style="fill:url(#linearGradient28094);fill-opacity:0.60416667;fill-rule:evenodd;stroke-width:1pt" />
        <path
           d="M 88.045057,97.263933 C 89.126767,96.645815 93.082737,96.584008 93.979012,98.561995 C 94.968005,100.81814 94.782569,104.24871 92.866396,105.2377 C 91.042941,106.22669 88.292305,103.59968 87.488748,102.27072 C 86.685191,100.94177 86.963346,97.882058 88.045057,97.263933 z"
           id="path28036"
           style="fill:#3a3731;fill-opacity:1;fill-rule:evenodd;stroke:none;stroke-width:1pt" />
        <path
           d="M 62.517483,98.366267 C 61.435773,97.748149 57.70718,97.795192 56.380089,100.20406 C 55.332227,102.10609 55.779971,105.35104 57.696144,106.34003 C 59.519599,107.32903 62.270235,104.70201 63.073792,103.37305 C 63.877349,102.0441 63.599194,98.984395 62.517483,98.366267 z"
           id="path28038"
           style="fill:#3a3731;fill-opacity:1;fill-rule:evenodd;stroke:none;stroke-width:1pt" />
        <path
           d="M 83.56583,21.034626 C 99.562852,23.919335 105.01185,40.229056 105.01185,40.229056 C 105.01185,40.229056 97.727128,29.16426 83.303584,26.541797 C 68.880039,24.181581 58.390189,27.590783 58.390189,27.590783 C 58.390189,27.590783 67.831054,18.149917 83.56583,21.034626 z"
           id="path28040"
           style="fill:url(#linearGradient28096);fill-opacity:0.75;fill-rule:evenodd;stroke-width:1pt" />
        <path
           d="M 99.917153,52.542083 C 100.70389,45.505144 101.44692,48.783219 103.06411,55.689038 C 104.68129,62.857102 104.11309,84.842078 101.75288,92.403513 C 99.654908,99.964949 98.649627,104.55426 98.343676,97.910688 C 98.037724,91.267113 99.130418,59.579021 99.917153,52.542083 z"
           id="path28042"
           style="fill:url(#linearGradient28098);fill-opacity:0.75;fill-rule:evenodd;stroke-width:1pt" />
        <path
           d="M 47.204608,72.352753 C 46.417873,65.315815 45.674837,68.593888 44.057653,75.499707 C 42.44047,82.667771 44.121282,90.559605 46.481502,98.121041 C 48.579469,105.68248 49.58475,110.27179 49.890702,103.62821 C 50.196653,96.984641 47.991343,79.389691 47.204608,72.352753 z"
           id="path28044"
           style="fill:url(#linearGradient28100);fill-opacity:0.75;fill-rule:evenodd;stroke-width:1pt" />
        <path
           d="M 83.739805,28.801856 C 99.73683,31.686565 105.18583,47.996285 105.18583,47.996285 C 105.18583,47.996285 97.901104,36.931489 83.477559,34.309026 C 69.054015,31.94881 58.564164,35.358012 58.564164,35.358012 C 58.564164,35.358012 68.005029,25.917147 83.739805,28.801856 z"
           id="path28046"
           style="fill:url(#linearGradient28102);fill-opacity:0.75;fill-rule:evenodd;stroke-width:1pt" />
        <path
           d="M 74.803747,99.893915 C 79.730478,99.629545 82.902812,102.41736 82.734582,104.94081 C 82.710548,107.32006 79.874674,110.58852 75.524732,110.70868 C 71.17479,110.97305 67.858258,108.18524 67.882291,105.66179 C 67.906324,102.99415 70.021213,100.15827 74.803747,99.893915 z"
           id="path28048"
           style="fill:url(#linearGradient28104);fill-rule:evenodd;stroke-width:1pt" />
        <path
           d="M 59.629366,99.676925 C 61.816229,99.518635 63.224354,101.18785 63.149682,102.69879 C 63.139014,104.12338 61.880234,106.08039 59.949394,106.15233 C 58.018556,106.31062 56.546423,104.64141 56.55709,103.13049 C 56.567758,101.53322 57.506509,99.835215 59.629366,99.676925 z"
           id="path28050"
           style="fill:url(#linearGradient28106);fill-rule:evenodd;stroke-width:1pt" />
        <path
           d="M 90.554216,97.847151 C 92.741079,97.688861 94.149204,99.358075 94.074532,100.86902 C 94.063864,102.29361 92.805084,104.25062 90.874244,104.32256 C 88.943406,104.48085 87.471273,102.81164 87.48194,101.30072 C 87.492608,99.703445 88.431359,98.005441 90.554216,97.847151 z"
           id="path28052"
           style="fill:url(#linearGradient28108);fill-rule:evenodd;stroke-width:1pt" />
        <path
           d="M 47.75096,54.502563 C 48.30298,47.933526 49.517423,46.995093 55.700045,45.559841 C 61.882666,44.12459 78.332855,44.566206 84.846689,45.891053 C 91.360523,47.215901 93.071784,47.657518 94.783046,53.508928 C 96.494307,59.360335 96.383902,74.596079 95.114257,80.999511 C 93.844612,87.402943 92.464562,89.94223 87.165172,91.9295 C 81.865783,93.916769 69.114127,94.08238 63.317918,92.923141 C 57.521711,91.763902 54.98242,91.377489 52.387927,84.974056 C 49.793434,78.570624 47.19894,61.071599 47.75096,54.502563 z"
           id="path28054"
           style="fill:url(#linearGradient28110);fill-opacity:1;fill-rule:evenodd;stroke-width:1pt" />
        <path
           d="M 96.066491,67.04721 C 96.094092,72.388001 95.74908,77.797795 95.114257,80.999511 C 93.844612,87.402943 92.464562,89.94223 87.165172,91.9295 C 81.865783,93.916769 69.114127,94.08238 63.317918,92.923141 C 57.521711,91.763902 54.98242,91.377489 52.387927,84.974056 C 51.090681,81.77234 49.793434,75.796726 48.889501,69.800411 C 49.245021,49.005519 96.03889,61.706419 96.066491,67.04721 z"
           id="path28056"
           style="fill:url(#linearGradient28112);fill-opacity:1;fill-rule:evenodd;stroke-width:1pt" />
      </g>
      <g
         transform="matrix(1.453594,0,0,1.453594,661.7096,336.3077)"
         id="g28058">
        <rect
           width="190.99763"
           height="39.395725"
           rx="10.000791"
           ry="9.6135817"
           x="551.41333"
           y="-9.9262667"
           transform="matrix(1,0,-0.3748577,0.9270824,0,0)"
           id="rect28060"
           style="opacity:1;fill:#ffffff;fill-opacity:1;stroke:#d1a600;stroke-width:4.42870331;stroke-linecap:round;stroke-linejoin:round;stroke-miterlimit:4;stroke-dasharray:none;stroke-dashoffset:0;stroke-opacity:1" />
      </g>
    </g>
    <rect
       width="527.73535"
       height="272.27258"
       x="-18"
       y="196.72742"
       id="rect36280"
       style="opacity:0.63425927;fill:url(#linearGradient36288);fill-opacity:1;stroke:none;stroke-width:2.3125;stroke-linecap:butt;stroke-linejoin:miter;stroke-miterlimit:4;stroke-dasharray:6.9375, 6.9375;stroke-dashoffset:0;stroke-opacity:1" />
    <text
       x="140.77847"
       y="118.0799"
       transform="matrix(1,0,-0.380639,1,0,0)"
       id="text2469"
       xml:space="preserve"
       style="font-size:32.26395035px;font-style:normal;font-variant:normal;font-weight:bold;font-stretch:normal;text-align:start;line-height:125%;writing-mode:lr-tb;text-anchor:start;fill:#204a87;fill-opacity:1;stroke:#204a87;stroke-width:1px;stroke-linecap:butt;stroke-linejoin:miter;stroke-opacity:1;font-family:Liberation Sans;-inkscape-font-specification:Liberation Sans Bold"><tspan
         x="140.77847"
         y="118.0799"
         id="tspan2471"
         style="font-size:32.26395035px;font-style:normal;font-variant:normal;font-weight:bold;font-stretch:normal;text-align:start;line-height:125%;letter-spacing:1.54130924;writing-mode:lr-tb;text-anchor:start;fill:#204a87;fill-opacity:1;stroke:#204a87;font-family:Liberation Sans;-inkscape-font-specification:Liberation Sans Bold">Mobicents</tspan></text>
  </g>
</svg>
